<svg viewBox="0 0 23 23" xmlns="http://www.w3.org/2000/svg"><title>Instagram</title><g><path d="M11.367 5.529a5.84 5.84 0 0 0-5.84 5.84 5.84 5.84 0 1 0 11.68 0 5.84 5.84 0 0 0-5.84-5.84zm0 9.634a3.794 3.794 0 1 1 0-7.589 3.794 3.794 0 0 1 0 7.589z"/><circle cx="17.439" cy="5.314" r="1.362"/><path d="M22.147 3.93A5.817 5.817 0 0 0 18.82.605a8.345 8.345 0 0 0-2.761-.53C14.843.02 14.458.006 11.373.006c-3.084 0-3.48 0-4.686.069a8.279 8.279 0 0 0-2.759.53A5.81 5.81 0 0 0 .603 3.93a8.318 8.318 0 0 0-.53 2.76C.02 7.907.003 8.292.003 11.378c0 3.085 0 3.478.07 4.687.02.944.197 1.877.53 2.762a5.823 5.823 0 0 0 3.327 3.325c.879.343 1.812.538 2.76.568 1.216.053 1.601.07 4.686.07s3.48 0 4.686-.07a8.356 8.356 0 0 0 2.762-.53 5.826 5.826 0 0 0 3.325-3.325c.333-.884.51-1.816.53-2.761.054-1.215.07-1.6.07-4.687 0-3.085 0-3.477-.07-4.686a8.313 8.313 0 0 0-.532-2.8zm-1.539 12.04a6.37 6.37 0 0 1-.392 2.132 3.773 3.773 0 0 1-2.163 2.162 6.297 6.297 0 0 1-2.11.392c-1.2.056-1.538.07-4.615.07-3.08 0-3.394 0-4.617-.07a6.265 6.265 0 0 1-2.108-.392 3.77 3.77 0 0 1-2.171-2.162 6.418 6.418 0 0 1-.393-2.108c-.055-1.2-.067-1.538-.067-4.615 0-3.079 0-3.393.067-4.617.009-.728.14-1.448.393-2.131a3.772 3.772 0 0 1 2.17-2.163 6.327 6.327 0 0 1 2.11-.393c1.2-.054 1.538-.07 4.616-.07 3.078 0 3.394 0 4.616.07a6.266 6.266 0 0 1 2.11.393 3.779 3.779 0 0 1 2.162 2.163c.247.674.381 1.388.392 2.108.055 1.201.069 1.538.069 4.617 0 3.077 0 3.408-.055 4.615h-.014z"/></g></svg>