<svg width="24" height="24" viewBox="0 0 24 24" xmlns="http://www.w3.org/2000/svg"><title>dribbble</title><path d="M22.392 5.976a11.918 11.918 0 0 0-4.37-4.368C16.184.536 14.177 0 12 0S7.817.536 5.976 1.608a11.915 11.915 0 0 0-4.368 4.368C.536 7.816 0 9.824 0 12s.535 4.184 1.608 6.024a11.909 11.909 0 0 0 4.37 4.368C7.816 23.464 9.823 24 12 24s4.183-.536 6.024-1.608a11.918 11.918 0 0 0 4.37-4.368C23.463 16.184 24 14.176 24 12s-.535-4.184-1.608-6.024zM12 1.992c2.4 0 4.526.768 6.384 2.303-1.104 1.409-2.743 2.568-4.92 3.48-1.202-2.176-2.506-3.993-3.913-5.448A9.258 9.258 0 0 1 12 1.992zM4.212 5.76a9.74 9.74 0 0 1 3.253-2.664c1.455 1.441 2.79 3.24 4.008 5.4-2.4.72-4.937 1.08-7.609 1.08-.688 0-1.207-.016-1.56-.048A10.258 10.258 0 0 1 4.212 5.76zM1.992 12c0-.065.004-.144.012-.24s.012-.175.012-.24c.305.017.77.024 1.393.024 3.2 0 6.175-.44 8.927-1.32.224.448.457.952.696 1.512-1.584.352-3.209 1.207-4.873 2.568-1.665 1.36-2.879 2.792-3.647 4.296-1.68-1.904-2.52-4.104-2.52-6.6zM12 22.008c-2.273 0-4.313-.704-6.121-2.11.721-1.425 1.829-2.787 3.325-4.082 1.495-1.296 2.98-2.104 4.452-2.424a35.33 35.33 0 0 1 1.872 7.944 9.8 9.8 0 0 1-3.528.672zm8.496-4.752a10.021 10.021 0 0 1-3.096 3.145 34.541 34.541 0 0 0-1.655-7.297c1.119-.08 2.118-.12 3-.12.959 0 2.023.04 3.191.12a9.717 9.717 0 0 1-1.44 4.152zm-1.488-6c-1.392 0-2.68.056-3.864.168a32.464 32.464 0 0 0-.816-1.944c2.48-1.087 4.238-2.407 5.279-3.96 1.44 1.697 2.225 3.632 2.352 5.808a59.98 59.98 0 0 0-2.951-.072z"/></svg>