<svg viewBox="0 0 32 32" xmlns="http://www.w3.org/2000/svg">
    <title>GitHub</title>
    <path
      d="M16.042 0C7.227 0 .083 7.144.083 15.958c0 7.05 4.571 13.032 10.914 15.144.798.144 1.086-.347 1.086-.77 0-.378-.013-1.383-.017-2.713-4.44.963-5.378-2.14-5.378-2.14-.723-1.844-1.771-2.335-1.771-2.335-1.448-.99.11-.968.11-.968 1.603.112 2.443 1.645 2.443 1.645 1.424 2.438 3.738 1.734 4.644 1.326.145-1.032.561-1.736 1.016-2.134-3.543-.402-7.268-1.771-7.268-7.888 0-1.74.623-3.167 1.639-4.28-.162-.405-.714-2.029.158-4.224 0 0 1.34-.43 4.387 1.633a15.332 15.332 0 0 1 3.994-.537c1.358.006 2.722.184 3.994.537 3.05-2.065 4.387-1.633 4.387-1.633.872 2.195.325 3.819.158 4.224 1.024 1.113 1.639 2.539 1.639 4.28 0 6.133-3.728 7.48-7.284 7.875.568.493 1.08 1.466 1.08 2.954 0 2.134-.019 3.856-.019 4.379 0 .427.285.923 1.1.766C27.433 28.984 32 23.006 32 15.96 32 7.143 24.856 0 16.042 0z"
      fillRule="evenodd"
    />
  </svg>