<svg viewBox="0 0 24 24" xmlns="http://www.w3.org/2000/svg"><title>Website</title><path d="M12 0C5.383 0 0 5.383 0 12s5.383 12 12 12 12-5.383 12-12S18.617 0 12 0zM2.483 13.2h3.569c.163 2.855.798 5.374 1.867 7.476A9.612 9.612 0 0 1 2.483 13.2zm3.553-2.4H2.483a9.614 9.614 0 0 1 5.541-7.528c-1.18 2.27-1.86 4.842-1.988 7.528zm6.626 10.766c-.22.015-.438.034-.662.034-.223 0-.44-.02-.66-.032-1.681-2.038-2.674-4.893-2.89-8.368h7.335c-.25 3.328-1.34 6.235-3.123 8.366zM8.436 10.8c.167-3.115 1.193-6.034 2.941-8.369.207-.012.413-.031.623-.031.215 0 .425.02.636.032 1.242 1.637 2.912 4.536 3.152 8.368H8.436zm7.717 9.841C17.3 18.488 18 15.96 18.183 13.2h3.333a9.606 9.606 0 0 1-5.363 7.441zM18.2 10.8a17.604 17.604 0 0 0-2.15-7.492 9.617 9.617 0 0 1 5.467 7.492H18.2z"/></svg>