<svg width="30" height="24" viewBox="0 0 30 24" xmlns="http://www.w3.org/2000/svg"><title>twitter</title><path d="M26.512 5.981c.02.263.02.525.02.787C26.532 14.774 20.438 24 9.302 24 5.87 24 2.681 23.006 0 21.28c.487.056.956.075 1.463.075 2.831 0 5.437-.956 7.52-2.587a6.069 6.069 0 0 1-5.665-4.2c.375.056.75.093 1.145.093.542 0 1.088-.075 1.595-.206A6.055 6.055 0 0 1 1.2 8.512v-.075c.808.45 1.744.73 2.737.768a6.047 6.047 0 0 1-2.7-5.043c0-1.125.299-2.156.823-3.055a17.226 17.226 0 0 0 12.49 6.337 6.882 6.882 0 0 1-.151-1.388C14.4 2.718 17.1 0 20.456 0a6.04 6.04 0 0 1 4.425 1.913c1.368-.264 2.68-.77 3.843-1.463a6.045 6.045 0 0 1-2.663 3.337c1.22-.132 2.402-.469 3.487-.938a12.998 12.998 0 0 1-3.036 3.132z"/></svg>